<?xml version="1.0" encoding="iso-8859-1"?>
<!-- Uploaded to: SVG Repo, www.svgrepo.com, Generator: SVG Repo Mixer Tools -->
<svg fill="#000000" height="800px" width="800px" version="1.1" id="Layer_1" xmlns="http://www.w3.org/2000/svg" xmlns:xlink="http://www.w3.org/1999/xlink" 
	 viewBox="0 0 485 485" xml:space="preserve">
<g>
	<path d="M435.25,0H135.81C88.925,0,50.78,38.128,50.751,85.006C50.74,87.768,49.75,361.663,49.75,399.94
		c0,46.902,38.158,85.06,85.06,85.06c22.727,0,44.228-8.811,60.542-24.811c12.773-12.526,21.067-28.228,24.15-45.25H435.25V0z
		 M405.25,227.761L288.192,110.703L368.736,30h36.514V227.761z M85.191,423.797c-3.486-7.222-5.442-15.315-5.442-23.857
		c0-6.933,0.033-21.622,0.086-41.034l111.034-110.683v69.896L85.191,423.797z M220.869,135.689V85.06
		c0-20.987-7.656-40.21-20.301-55.06h125.783L220.869,135.689z M190.869,205.863l-39.575,39.45l-70.861-70.86
		c0.03-8.669,0.059-16.992,0.087-24.833c14.881,12.763,34.193,20.5,55.289,20.5c20.987,0,40.209-7.656,55.06-20.301V205.863z
		 M80.288,216.733l49.76,49.76l-50.087,49.928C80.057,285.619,80.174,250.324,80.288,216.733z M220.869,178.157L267,131.936
		l88.712,88.712L220.869,356.274V178.157z M135.81,30c30.36,0,55.06,24.7,55.06,55.06c0,30.36-24.7,55.06-55.06,55.06
		c-30.36,0-55.06-24.7-55.06-55.06C80.75,54.7,105.449,30,135.81,30z M134.81,455c-10.924,0-21.105-3.211-29.677-8.719
		l85.736-85.736v39.395C190.869,430.3,165.721,455,134.81,455z M234.672,384.94l142.253-143.078l28.325,28.325V384.94H234.672z"/>
</g>
</svg>